PathFileType	4	(X/Y/Z)	 s03c0203.trc
DataRate	CameraRate	NumFrames	NumMarkers	Units	OrigDataRate	OrigDataStartFrame	OrigNumFrames
200	200	6	50	mm	200	501	2000
Frame#	Time	racr			lacr			c7			jug			rlel			rdr			llel			ldr			s2			lic			ric			lasi			rasi			rpsi			lpsi			rgt			lgt			rth1			rth2			rth3			rth4			rlfc			rmfc			rsh1			rsh2			rsh3			rsh4			rlmal			rcal			rtoe			rmt5			rmt1			lth1			lth2			lth4			lth3			llfc			lmfc			lsh1			lsh2			lsh3			lsh4			llmal			lcal			ltoe			lmt1			lmt5			SBIKE			LBIKE			RBIKE			
		X1	Y1	Z1	X2	Y2	Z2	X3	Y3	Z3	X4	Y4	Z4	X5	Y5	Z5	X6	Y6	Z6	X7	Y7	Z7	X8	Y8	Z8	X9	Y9	Z9	X10	Y10	Z10	X11	Y11	Z11	X12	Y12	Z12	X13	Y13	Z13	X14	Y14	Z14	X15	Y15	Z15	X16	Y16	Z16	X17	Y17	Z17	X18	Y18	Z18	X19	Y19	Z19	X20	Y20	Z20	X21	Y21	Z21	X22	Y22	Z22	X23	Y23	Z23	X24	Y24	Z24	X25	Y25	Z25	X26	Y26	Z26	X27	Y27	Z27	X28	Y28	Z28	X29	Y29	Z29	X30	Y30	Z30	X31	Y31	Z31	X32	Y32	Z32	X33	Y33	Z33	X34	Y34	Z34	X35	Y35	Z35	X36	Y36	Z36	X37	Y37	Z37	X38	Y38	Z38	X39	Y39	Z39	X40	Y40	Z40	X41	Y41	Z41	X42	Y42	Z42	X43	Y43	Z43	X44	Y44	Z44	X45	Y45	Z45	X46	Y46	Z46	X47	Y47	Z47	X48	Y48	Z48	X49	Y49	Z49	X50	Y50	Z50	
501	2.5050	531.921469	1355.072205	-119.767316	447.718783	1389.003623	-412.106219	419.424798	1449.143003	-246.243461	439.035489	1275.295457	-264.168818	549.107159	1172.443823	97.448005	732.195372	995.862836	-11.453950	461.063866	1132.289528	-534.347803	709.130154	989.001518	-423.716942	-122.780780	1223.737134	-188.270816	36.748058	1255.836486	-379.699203	59.207487	1217.512036	-9.683761	62.626715	1183.259454	-348.928626	70.725338	1148.932424	-54.999885	-86.454513	1263.796101	-134.309108	-87.290708	1272.583239	-215.959707	-18.380923	1110.008874	-1.675453	-9.277354	1170.077209	-400.165860	90.471370	984.518642	-2.258958	173.294150	951.943453	-8.152754	227.948207	886.414032	-22.125166	194.051724	980.804877	-18.131191	304.231419	787.757198	-62.113910	291.540388	779.963735	-185.382491	213.565894	647.425567	-36.804866	178.351334	567.951634	-56.626953	108.812296	513.012760	-55.691583	201.753661	555.856374	-84.277119	18.860855	417.697635	-77.406914	-55.858727	404.410576	-113.450164	206.747642	235.245702	-114.888858	97.655744	284.604891	-47.652126	127.816330	283.450504	-161.449843	106.570990	1062.931339	-428.307051	186.018523	1029.290888	-430.672434	208.118708	1056.884089	-420.481554	239.710298	957.683903	-429.340608	354.937138	882.069134	-412.339090	355.333927	863.340303	-289.571637	313.195497	714.718073	-443.617130	318.172653	630.794893	-427.137985	278.899877	549.049159	-425.832943	347.764503	627.259584	-402.131597	249.135287	422.349926	-413.243421	195.285503	353.980052	-370.435557	493.998373	438.871552	-353.559332	401.943726	409.128355	-314.344115	390.631472	382.820002	-432.640049	-217.387369	944.631245	-231.358837	-8.118899	83.852496	-436.997291	-14.026803	80.652893	-36.702949	
502	2.5100	534.427793	1354.655513	-119.977740	449.985089	1389.137560	-412.477654	422.021938	1448.939680	-246.670126	441.079523	1275.188563	-264.193714	549.914637	1172.693017	97.768140	731.810331	995.519097	-11.532250	461.802593	1132.543490	-535.456236	708.863434	988.979375	-423.787875	-120.675438	1224.204548	-189.858229	39.559333	1255.391213	-380.815714	61.465539	1217.822391	-10.616512	64.367628	1182.722737	-349.222507	72.767629	1149.352342	-55.948496	-84.160671	1264.537886	-135.216854	-84.800244	1273.095929	-217.099819	-16.446923	1111.235442	-1.981408	-7.125313	1169.356597	-400.858406	92.283940	985.851545	-1.863755	175.189873	953.666724	-7.210329	230.142134	888.196134	-20.800443	195.891862	982.387366	-17.426827	306.693710	789.586305	-60.377038	294.690316	781.402163	-183.953557	214.732980	650.010976	-35.816605	178.732350	571.058522	-55.938433	108.550002	516.884629	-55.413445	202.075170	558.773879	-83.519049	17.604809	422.723159	-77.627767	-57.226879	409.602620	-114.093362	205.136610	240.162997	-114.654938	95.868646	289.663527	-47.779512	126.266593	288.418365	-161.539981	107.802476	1060.652676	-428.863148	186.907057	1026.248063	-431.157111	209.297204	1053.700615	-421.175536	239.888185	954.112122	-429.461588	354.426255	877.795113	-412.434103	354.912540	859.339992	-289.732010	313.727668	710.254916	-443.912328	319.106324	626.398341	-427.507534	280.325733	544.340388	-426.376934	348.740488	623.020624	-402.482321	251.035475	417.494477	-414.043900	197.072369	349.246800	-371.340098	495.884043	433.549699	-353.456241	403.639894	404.123322	-314.599500	392.710428	377.566208	-432.867938	-217.253724	944.684489	-231.381162	-8.106516	83.869137	-436.959424	-14.006849	80.648760	-36.699490	
503	2.5150	536.660305	1354.339697	-120.252146	452.135824	1389.239565	-412.700028	424.567222	1448.921468	-247.127497	443.151587	1275.371193	-264.297942	550.596248	1173.050090	98.095848	731.439964	995.178167	-11.544670	462.613617	1132.903479	-536.373623	708.678846	988.959685	-423.799753	-118.576559	1224.672928	-191.364965	42.264322	1255.156975	-381.826063	63.983255	1218.108603	-11.833163	66.129465	1182.154673	-349.465086	75.012499	1149.799439	-56.812585	-81.869906	1265.281787	-136.145351	-82.303514	1273.594357	-218.219166	-14.463867	1112.530059	-2.374332	-4.899779	1168.554884	-401.545685	94.189103	987.317588	-1.353300	177.174930	955.292766	-6.409299	232.078605	890.106929	-19.199617	197.767935	984.039860	-16.779526	309.318999	791.451947	-58.574979	298.886272	783.523170	-182.376756	216.088814	652.692601	-34.818421	179.331163	574.187350	-55.150996	108.449214	520.829569	-55.122717	202.616935	561.825658	-82.656024	16.551578	427.808367	-77.902850	-58.383650	415.133100	-114.774020	203.589898	244.935346	-114.499931	94.253207	294.737341	-47.946853	124.959521	293.410307	-161.659511	109.085909	1058.501112	-429.342393	187.823931	1023.248762	-431.564407	210.513818	1050.542074	-421.772113	240.153185	950.625140	-429.569123	354.140356	873.590016	-412.212788	354.027101	854.989856	-290.178765	314.281386	705.877867	-444.041126	319.972430	622.080926	-427.918304	281.560289	539.752785	-426.615836	349.662523	618.715269	-402.880687	253.004054	412.669775	-414.865645	198.739724	344.664988	-372.200137	497.737464	428.089446	-353.353403	405.276387	399.042329	-314.883647	394.685713	372.326101	-433.073305	-217.120852	944.724057	-231.438701	-8.101486	83.876062	-436.970693	-13.996747	80.663132	-36.700328	
504	2.5200	538.951008	1354.213625	-120.475719	454.320789	1389.495097	-413.030055	427.022711	1448.993454	-247.530404	445.179082	1275.609313	-264.313014	551.213749	1173.318149	98.215082	731.122464	994.845341	-11.353718	463.582089	1133.250999	-536.819021	708.576048	988.823093	-423.468056	-116.493115	1225.147399	-192.770618	40.900925	1251.977932	-371.977174	66.251694	1218.399024	-12.853515	67.909529	1181.554550	-349.652500	77.088018	1150.184915	-57.953077	-79.560480	1266.017536	-137.092745	-79.837483	1274.075747	-219.375549	-12.433272	1113.740121	-2.698575	-2.709359	1167.831950	-402.676598	96.163771	988.890737	-0.932920	179.273007	957.096061	-5.567027	234.104704	892.167920	-17.918242	199.596920	986.196847	-15.713323	312.086506	793.507741	-56.740619	302.852681	785.187001	-180.064810	217.572206	655.596485	-33.764160	180.043766	577.539548	-54.413672	108.582219	524.947016	-54.784605	203.261610	564.984723	-81.855248	16.011868	433.241295	-77.806821	-59.176359	420.689431	-115.246660	202.278264	249.828083	-114.334289	92.929858	300.037629	-48.083950	123.865774	298.523740	-161.715026	110.436511	1056.247003	-429.922634	188.838031	1020.319298	-432.006255	211.700721	1047.288588	-421.859133	240.477972	947.202454	-429.656952	353.839808	869.451242	-412.285543	353.369492	851.196384	-290.222222	314.799392	701.561061	-444.294052	321.068907	617.230320	-427.123659	282.917416	535.214275	-427.112244	350.840241	615.050476	-404.283299	254.790636	408.003723	-415.519397	200.229314	340.328868	-372.947895	499.627675	422.264095	-353.377980	406.740987	393.927314	-315.480542	396.522761	366.967473	-433.215116	-217.069039	944.747888	-231.439913	-8.075893	83.852670	-437.003800	-13.978642	80.667645	-36.701959	
505	2.5250	541.168365	1354.253320	-120.663559	456.239451	1389.761953	-413.126342	429.365727	1449.198102	-247.933040	447.091052	1275.959623	-264.139823	551.690004	1173.546301	98.180629	730.974458	994.532146	-10.936308	464.563036	1133.792995	-537.455255	708.462239	988.783082	-423.348719	-114.434075	1225.633087	-194.054781	43.482737	1251.685819	-372.900152	68.501545	1218.755453	-13.893466	69.705119	1180.921654	-349.780885	79.326020	1150.649396	-58.913892	-77.259933	1266.666369	-138.068200	-77.343894	1274.481224	-220.576572	-10.295388	1114.972094	-3.078313	-0.351726	1166.923820	-403.029537	98.221274	990.494407	-0.686418	181.423802	959.140843	-4.778319	236.619784	894.314091	-16.611581	201.754832	988.072239	-15.207441	314.951783	795.722197	-54.840860	306.498357	787.352744	-178.336047	219.185568	658.653981	-32.650338	180.971055	580.978577	-53.557868	108.961592	529.179849	-54.358679	204.074944	568.262309	-81.033623	15.399647	438.623227	-78.018416	-59.876335	426.499858	-115.786479	201.058149	254.765413	-114.160116	91.748330	305.315671	-48.213481	122.899941	303.616188	-161.705401	111.837345	1054.123710	-430.491456	189.900176	1017.404168	-432.404812	213.108275	1044.361557	-422.920695	240.922078	943.779989	-429.653883	353.655311	865.305512	-412.305594	353.422292	848.304563	-289.254030	315.300329	697.154872	-444.497265	321.796252	613.310103	-428.546262	284.236726	530.720399	-427.538867	351.521375	610.262318	-403.394057	256.458726	403.320197	-416.129868	201.632875	335.982249	-373.569316	501.566740	416.736585	-353.083376	408.303225	388.726050	-315.767639	398.179769	361.625447	-433.397645	-216.955402	944.802283	-231.505566	-8.068406	83.890897	-436.976086	-13.970196	80.691544	-36.691929	
506	2.5300	543.294150	1354.460579	-120.877594	458.318430	1390.237888	-413.450961	432.074402	1449.583088	-249.400716	448.962916	1276.558359	-264.054814	552.030819	1173.719970	97.953077	730.971173	994.265259	-10.398897	465.593160	1134.329471	-537.929301	708.387749	988.728580	-423.165327	-112.408411	1226.135116	-195.197049	46.070083	1251.219211	-373.923568	70.775314	1219.205497	-14.988922	71.513538	1180.255272	-349.846376	81.300579	1151.027311	-60.051721	-75.028392	1267.377141	-139.043095	-74.958238	1274.865244	-221.715986	-8.165150	1116.174167	-3.461694	1.874987	1166.129564	-404.120026	100.345258	992.315886	-0.390958	183.697062	961.283368	-4.082994	239.230466	896.592437	-15.353940	203.930478	990.211062	-14.701509	317.991189	798.034652	-52.935305	310.219555	789.662082	-176.581264	220.780431	661.658506	-31.656706	182.074152	584.678650	-52.698909	109.456604	533.638945	-53.974741	206.080103	571.856895	-79.553944	15.017113	444.019120	-78.241196	-60.180524	432.326317	-116.211564	200.008900	259.554752	-114.062357	90.765811	310.701039	-48.287932	122.201334	308.796396	-161.708690	113.309443	1051.995658	-431.069534	191.030163	1014.579862	-432.864538	214.409449	1041.262683	-422.994961	241.459933	940.440480	-429.764232	353.550219	861.190317	-412.147531	353.126268	843.724746	-288.512239	315.746192	692.795802	-444.669184	322.665259	609.122820	-428.660356	285.468951	526.212585	-427.772199	352.400607	606.082788	-403.665906	258.048868	398.796384	-416.573873	202.566065	332.092259	-374.509955	503.126277	410.140594	-352.741057	409.807088	383.751803	-316.300181	399.692258	356.247318	-433.437039	-217.211446	945.037973	-231.662194	-8.062201	83.892269	-436.986675	-13.963702	80.708890	-36.732220	
